<svg width="20" height="20" viewBox="0 0 20 20" fill="none" xmlns="http://www.w3.org/2000/svg">
<g clip-path="url(#clip0)">
<path d="M9.78606 15.6574H10.9811C10.9811 15.6574 11.3424 15.6174 11.5262 15.4186C11.6962 15.2361 11.6899 14.8936 11.6899 14.8936C11.6899 14.8936 11.6662 13.2897 12.4113 13.0535C13.1451 12.8209 14.0876 14.6036 15.0865 15.2899C15.8415 15.8087 16.4153 15.6949 16.4153 15.6949L19.0867 15.6574C19.0867 15.6574 20.4843 15.5711 19.8218 14.4723C19.768 14.3823 19.4355 13.6597 17.8354 12.1746C16.1603 10.6195 16.3853 10.872 18.4029 8.18309C19.6318 6.54547 20.1231 5.54539 19.9693 5.11786C19.823 4.71033 18.9192 4.81784 18.9192 4.81784L15.914 4.83534C15.914 4.83534 15.6915 4.80534 15.5252 4.9041C15.364 5.0016 15.2602 5.22662 15.2602 5.22662C15.2602 5.22662 14.7839 6.49422 14.1489 7.5718C12.81 9.84571 12.2737 9.96572 12.055 9.82446C11.5462 9.49569 11.6737 8.50186 11.6737 7.79681C11.6737 5.5929 12.0075 4.67408 11.0224 4.43656C10.6949 4.35781 10.4549 4.3053 9.61855 4.29655C8.54597 4.2853 7.63715 4.3003 7.12336 4.55157C6.78084 4.71908 6.51707 5.09286 6.67833 5.11411C6.8771 5.14036 7.32713 5.23537 7.5659 5.5604C7.87467 5.97918 7.86342 6.92175 7.86342 6.92175C7.86342 6.92175 8.04093 9.51569 7.44964 9.83821C7.04336 10.0595 6.48707 9.6082 5.29323 7.54429C4.68193 6.48796 4.2194 5.31913 4.2194 5.31913C4.2194 5.31913 4.13064 5.10161 3.97188 4.98535C3.77937 4.84409 3.50935 4.79909 3.50935 4.79909L0.651638 4.81659C0.651638 4.81659 0.222856 4.82909 0.0653449 5.01536C-0.0746654 5.18162 0.0540941 5.52414 0.0540941 5.52414C0.0540941 5.52414 2.29176 10.7583 4.82444 13.3972C7.14837 15.8162 9.78606 15.6574 9.78606 15.6574Z" fill="#3C8FF1"/>
</g>
<defs>
<clipPath id="clip0">
<rect width="20" height="20" fill="white"/>
</clipPath>
</defs>
</svg>
