<svg width="58" height="40" viewBox="0 0 58 40" fill="none" xmlns="http://www.w3.org/2000/svg">
<path d="M40.6 17.9655C40.4804 17.2438 39.8227 16.7627 38.9257 16.7627C38.6267 16.7627 38.3875 16.7627 38.0885 16.7627C37.5504 16.7025 37.4308 16.883 37.4308 17.304C37.4308 19.4089 37.4308 21.4537 37.4308 23.5586C37.4308 24.6412 36.3544 25.7839 35.0987 26.0244C31.152 26.9266 27.2054 27.7685 23.2587 28.6706C22.8402 28.7909 22.3618 28.7909 21.8834 28.7909C21.704 28.7909 21.405 28.6706 21.3452 28.4902C21.2854 28.3699 21.4648 28.1294 21.5844 28.0091C21.7638 27.8888 22.003 27.7685 22.2422 27.6482C22.9598 27.4077 23.7371 27.1671 24.4547 26.9266C27.3848 25.9643 30.3149 25.002 33.2449 23.9796C34.5605 23.5586 35.2781 22.6565 35.2781 21.5138C35.3379 17.9054 35.2781 14.2368 35.2781 10.6283C35.2781 10.0269 34.9791 9.54575 34.3213 9.30518C33.5439 9.00448 32.8263 9.24504 32.1686 9.54574C27.9827 11.5304 23.8567 13.5151 19.6709 15.4997C18.4749 16.1011 17.7574 16.9431 17.7574 18.1459C17.7574 21.574 17.7574 25.002 17.7574 28.4301C17.7574 28.6105 17.7574 28.7909 17.8172 28.9112C18.2358 30.0539 19.3121 30.7756 20.7473 30.7756C23.6773 30.7756 26.6074 30.7756 29.5375 30.7756C32.4676 30.7756 35.3379 30.7756 38.2679 30.7756C38.9257 30.7756 39.4639 30.6553 39.9423 30.2343C40.5402 29.7532 40.5402 29.0916 40.5402 28.4902C40.5402 25.5314 40.6 17.9655 40.6 17.9655ZM28.4013 16.883C28.7003 16.1011 29.3581 15.62 30.3149 15.4997C30.9726 15.4396 31.5108 15.8004 31.6304 16.4018C31.75 17.304 30.6736 18.3865 29.5375 18.3865C28.6405 18.3865 28.1023 17.725 28.4013 16.883Z" fill="#FD6727"/>
</svg>
