<svg width="58" height="40" viewBox="0 0 58 40" fill="none" xmlns="http://www.w3.org/2000/svg">
<path fill-rule="evenodd" clip-rule="evenodd" d="M29.3271 28.9686C27.3525 30.6824 24.7911 31.717 21.9922 31.717C15.747 31.717 10.6843 26.566 10.6843 20.212C10.6843 13.858 15.747 8.70703 21.9922 8.70703C24.7911 8.70703 27.3525 9.74162 29.3271 11.4554C31.3017 9.74162 33.8631 8.70703 36.662 8.70703C42.9072 8.70703 47.97 13.858 47.97 20.212C47.97 26.566 42.9072 31.717 36.662 31.717C33.8631 31.717 31.3017 30.6824 29.3271 28.9686Z" fill="#ED0006"/>
<path fill-rule="evenodd" clip-rule="evenodd" d="M29.3271 28.9686C31.7585 26.8584 33.3002 23.7184 33.3002 20.212C33.3002 16.7056 31.7585 13.5656 29.3271 11.4554C31.3018 9.74162 33.8631 8.70703 36.662 8.70703C42.9073 8.70703 47.97 13.858 47.97 20.212C47.97 26.566 42.9073 31.717 36.662 31.717C33.8631 31.717 31.3018 30.6824 29.3271 28.9686Z" fill="#F9A000"/>
<path fill-rule="evenodd" clip-rule="evenodd" d="M29.3271 11.4551C31.7585 13.5653 33.3002 16.7053 33.3002 20.2116C33.3002 23.718 31.7585 26.858 29.3271 28.9682C26.8958 26.858 25.3541 23.718 25.3541 20.2116C25.3541 16.7053 26.8958 13.5653 29.3271 11.4551Z" fill="#FF5E00"/>
</svg>
