<svg width="58" height="40" viewBox="0 0 58 40" fill="none" xmlns="http://www.w3.org/2000/svg">
<path fill-rule="evenodd" clip-rule="evenodd" d="M17.6076 27.0974H14.0939L11.4591 16.9876C11.334 16.5226 11.0685 16.1115 10.6779 15.9177C9.7031 15.4307 8.62895 15.0432 7.45715 14.8477V14.4585H13.1174C13.8986 14.4585 14.4845 15.0432 14.5822 15.7222L15.9493 23.0148L19.4612 14.4585H22.8772L17.6076 27.0974ZM24.8302 27.0974H21.5119L24.2443 14.4585H27.5627L24.8302 27.0974ZM31.8559 17.9598C31.9535 17.2791 32.5394 16.8899 33.223 16.8899C34.2971 16.7922 35.4672 16.9876 36.4437 17.4729L37.0296 14.7517C36.0531 14.3624 34.9789 14.167 34.0042 14.167C30.7834 14.167 28.4398 15.9177 28.4398 18.3474C28.4398 20.1958 30.0999 21.1663 31.2717 21.751C32.5394 22.334 33.0277 22.7232 32.93 23.3062C32.93 24.1807 31.9535 24.57 30.9787 24.57C29.8069 24.57 28.6351 24.2785 27.5627 23.7915L26.9768 26.5144C28.1486 26.9997 29.4163 27.1951 30.5881 27.1951C34.1995 27.2912 36.4437 25.5422 36.4437 22.917C36.4437 19.6111 31.8559 19.4173 31.8559 17.9598ZM48.0572 27.0974L45.4223 14.4585H42.5922C42.0063 14.4585 41.4204 14.8477 41.2251 15.4307L36.346 27.0974H39.7621L40.4439 25.2507H44.6411L45.0317 27.0974H48.0572ZM43.0804 17.8621L44.0552 22.6255H41.3228L43.0804 17.8621Z" fill="#172B85"/>
</svg>
